<svg xmlns="http://www.w3.org/2000/svg" viewBox="0 0 800 450">
<defs><linearGradient id="sky2" x1="0" y1="0" x2="0" y2="1">
<stop offset="0" stop-color="#CFE3F0"/><stop offset="1" stop-color="#EAF1F4"/></linearGradient></defs>
<rect width="800" height="450" fill="url(#sky2)"/>
<circle cx="650" cy="100" r="40" fill="#F4F2ED" opacity="0.9"/>
<path d="M0,330 L180,250 L330,320 L800,300 L800,450 L0,450 Z" fill="#5C7E8C"/>
<path d="M0,450 L120,360 L300,430 L520,300 L560,330 L600,300 L800,420 L800,450 Z" fill="#3E5D52"/>
<path d="M380,450 L560,120 L740,450 Z" fill="#2E6B4F"/>
<path d="M520,235 L560,120 L600,235 L575,220 L560,250 L545,222 Z" fill="#F4F2ED"/>
<path d="M460,330 L500,300 L520,335 L545,305 L575,345 Z" fill="#F4F2ED" opacity="0.85"/>
</svg>