<svg xmlns="http://www.w3.org/2000/svg" viewBox="0 0 800 450">
<defs><linearGradient id="sky4" x1="0" y1="0" x2="0" y2="1">
<stop offset="0" stop-color="#DCEBE4"/><stop offset="1" stop-color="#EFF3EC"/></linearGradient>
<linearGradient id="lake" x1="0" y1="0" x2="0" y2="1">
<stop offset="0" stop-color="#5E97B0"/><stop offset="1" stop-color="#3F7791"/></linearGradient></defs>
<rect width="800" height="450" fill="url(#sky4)"/>
<path d="M0,280 L160,200 L320,270 L520,190 L700,260 L800,230 L800,300 L0,300 Z" fill="#2E6B4F"/>
<path d="M0,300 L180,235 L380,295 L600,225 L800,285 L800,320 L0,320 Z" fill="#1E4A3A"/>
<path d="M0,320 Q400,290 800,320 L800,450 L0,450 Z" fill="url(#lake)"/>
<ellipse cx="410" cy="372" rx="34" ry="11" fill="#2E6B4F"/>
<polygon points="410,352 398,372 422,372" fill="#1E4A3A"/>
<g stroke="#FFFFFF" stroke-width="2" opacity="0.25">
<line x1="120" y1="360" x2="240" y2="360"/><line x1="520" y1="400" x2="680" y2="400"/></g>
</svg>